<svg fill="none" height="17" viewBox="0 0 19 17" width="19" xmlns="http://www.w3.org/2000/svg"><path d="m10.4712 4.005-.4987 2.52875c-.105.51625.035 1.05.3675 1.4525s.8225.63875 1.3475.63875h4.8125v.945l-2.2487 5.18h-7.0788c-.1575 0-.2975-.14-.2975-.2975v-6.86zm.7788-3.255-5.60875 5.60875c-.3325.3325-.51625.77875-.51625 1.2425v6.85125c0 1.1287.91875 2.0475 2.0475 2.0475h7.0875c.6213 0 1.19-.3237 1.505-.8487l2.3362-5.3813c.0963-.2187.1488-.455.1488-.7v-.945c0-.9625-.7875-1.75-1.75-1.75h-4.8125l.805-4.06875c.0438-.1925.0175-.4025-.07-.5775-.2012-.39375-.455-.7525-.77-1.0675zm-8.75 6.125h-1.75v9.625h1.75c.48125 0 .875-.3937.875-.875v-7.875c0-.48125-.39375-.875-.875-.875z" fill="#323232"/></svg>